<?xml version="1.0" encoding="UTF-8" standalone="no"?>
<svg
   xmlns:dc="http://purl.org/dc/elements/1.1/"
   xmlns:cc="http://creativecommons.org/ns#"
   xmlns:rdf="http://www.w3.org/1999/02/22-rdf-syntax-ns#"
   xmlns:svg="http://www.w3.org/2000/svg"
   xmlns="http://www.w3.org/2000/svg"
   xmlns:sodipodi="http://sodipodi.sourceforge.net/DTD/sodipodi-0.dtd"
   xmlns:inkscape="http://www.inkscape.org/namespaces/inkscape"
   height="78px"
   id="Layer_1"
   style="enable-background:new 0 0 78 78;"
   version="1.1"
   viewBox="0 0 78 78"
   width="78px"
   xml:space="preserve"
   inkscape:version="0.91 r13725"
   sodipodi:docname="markertest.svg"><metadata
     id="metadata13"><rdf:RDF><cc:Work
         rdf:about=""><dc:format>image/svg+xml</dc:format><dc:type
           rdf:resource="http://purl.org/dc/dcmitype/StillImage" /><dc:title></dc:title></cc:Work></rdf:RDF></metadata><defs
     id="defs11" /><sodipodi:namedview
     pagecolor="#ffffff"
     bordercolor="#666666"
     borderopacity="1"
     objecttolerance="10"
     gridtolerance="10"
     guidetolerance="10"
     inkscape:pageopacity="0"
     inkscape:pageshadow="2"
     inkscape:window-width="1366"
     inkscape:window-height="706"
     id="namedview9"
     showgrid="false"
     inkscape:zoom="3.025641"
     inkscape:cx="39"
     inkscape:cy="39"
     inkscape:window-x="-8"
     inkscape:window-y="-8"
     inkscape:window-maximized="1"
     inkscape:current-layer="Layer_1" /><g
     id="g3"><path
       d="m 69,30.451 c 0,-16.568 -13.431,-30 -30,-30 -16.568,0 -30,13.432 -30,30 0,7.086 2.464,13.596 6.572,18.729 0.001,10e-4 0.002,0.003 0.001,0.004 -0.001,0.001 -0.002,0.002 -0.004,0.002 7.746,9.674 18.693,23.347 22.259,27.8 0.285,0.355 0.716,0.562 1.171,0.563 0.456,0 0.888,-0.206 1.172,-0.562 3.564,-4.452 14.508,-18.119 22.254,-27.794 0.001,-10e-4 0.002,-0.003 0.001,-0.004 C 62.425,49.188 62.424,49.187 62.422,49.187 66.534,44.052 69,37.542 69,30.451 Z M 57.567,45.66 39,68.851 20.613,45.887 20.425,45.653 c -0.055,-0.075 -0.111,-0.149 -0.169,-0.222 -3.439,-4.297 20.523661,28.531475 20.523661,23.028475 0,-13.234 -13.690627,-5.491526 -0.457627,-5.491526 13.233,0 -12.355932,-41.454339 -12.355932,-28.220339 0,5.506 12.392864,32.832068 8.949864,37.130068 C 36.857966,71.950678 57.623,45.584 57.567,45.66 Z"
       style="fill:#333f4f"
       id="path5"
       inkscape:connector-curvature="0"
       sodipodi:nodetypes="ssscscccccscscccccssscc" /><circle
       cx="39"
       cy="30.451"
       r="10.5"
       style="fill:#0000ff"
       id="circle7" /></g></svg>